<mxfile host="65bd71144e">
    <diagram name="Page-1" id="bGTiI7xFBvxO2wCXFQ3a">
        <mxGraphModel dx="716" dy="756" grid="1" gridSize="10" guides="0" tooltips="1" connect="1" arrows="1" fold="1" page="0" pageScale="1" pageWidth="827" pageHeight="1169" background="none" math="0" shadow="0">
            <root>
                <mxCell id="0"/>
                <mxCell id="1" parent="0"/>
            </root>
        </mxGraphModel>
    </diagram>
</mxfile>